<mxfile host="app.diagrams.net" modified="2024-04-09T18:22:26.850Z" agent="Mozilla/5.0 (Macintosh; Intel Mac OS X 10_15_7) AppleWebKit/537.36 (KHTML, like Gecko) Chrome/123.0.0.0 Safari/537.36" version="24.2.3" etag="SRqnRiy8FEwaT4wcyxKf" type="github">
  <diagram name="PÃ¡gina-1" id="ZVZ7jTIvL17zGGQucUL8">
    <mxGraphModel>
      <root>
        <mxCell id="0" />
        <mxCell id="1" parent="0" />
      </root>
    </mxGraphModel>
  </diagram>
</mxfile>
